<svg xmlns="http://www.w3.org/2000/svg">
  <symbol id="search" viewBox="0 0 24 24">
    <g fill="none" stroke="currentColor" stroke-width="1.6" stroke-linecap="round" stroke-linejoin="round">
      <circle cx="11" cy="11" r="7"/><path d="M20 20l-3.5-3.5"/>
    </g>
  </symbol>
  <symbol id="import" viewBox="0 0 24 24">
    <g fill="none" stroke="currentColor" stroke-width="1.6" stroke-linecap="round" stroke-linejoin="round">
      <path d="M12 3v12"/><path d="M7 10l5 5 5-5"/><path d="M4 21h16"/>
    </g>
  </symbol>
  <symbol id="export" viewBox="0 0 24 24">
    <g fill="none" stroke="currentColor" stroke-width="1.6" stroke-linecap="round" stroke-linejoin="round">
      <path d="M12 15V3"/><path d="M7 8l5-5 5 5"/><path d="M4 21h16"/>
    </g>
  </symbol>
  <symbol id="stats" viewBox="0 0 24 24">
    <g fill="none" stroke="currentColor" stroke-width="1.6" stroke-linecap="round" stroke-linejoin="round">
      <path d="M4 20V10"/><path d="M10 20V4"/><path d="M16 20v-8"/><path d="M22 20H2"/>
    </g>
  </symbol>
  <symbol id="json" viewBox="0 0 24 24">
    <g fill="none" stroke="currentColor" stroke-width="1.6" stroke-linecap="round" stroke-linejoin="round">
      <path d="M8 4c-2 0-3 1-3 3v3c0 1-1 2-2 2 1 0 2 1 2 2v3c0 2 1 3 3 3"/>
      <path d="M16 4c2 0 3 1 3 3v3c0 1 1 2 2 2-1 0-2 1-2 2v3c0 2-1 3-3 3"/>
    </g>
  </symbol>
  <symbol id="settings" viewBox="0 0 24 24">
    <g fill="none" stroke="currentColor" stroke-width="1.6" stroke-linecap="round" stroke-linejoin="round">
      <circle cx="12" cy="12" r="3"/>
      <path d="M19.4 15a1.65 1.65 0 00.33 1.82l.06.06a2 2 0 11-2.83 2.83l-.06-.06a1.65 1.65 0 00-1.82-.33 1.65 1.65 0 00-1 1.51V21a2 2 0 11-4 0v-.09A1.65 1.65 0 009 19.4a1.65 1.65 0 00-1.82.33l-.06.06a2 2 0 11-2.83-2.83l.06-.06A1.65 1.65 0 004.6 15a1.65 1.65 0 00-1.51-1H3a2 2 0 110-4h.09A1.65 1.65 0 004.6 9a1.65 1.65 0 00-.33-1.82l-.06-.06a2 2 0 112.83-2.83l.06.06A1.65 1.65 0 009 4.6a1.65 1.65 0 001-1.51V3a2 2 0 114 0v.09A1.65 1.65 0 0015 4.6a1.65 1.65 0 001.82-.33l.06-.06a2 2 0 112.83 2.83l-.06.06A1.65 1.65 0 0019.4 9a1.65 1.65 0 001.51 1H21a2 2 0 110 4h-.09a1.65 1.65 0 00-1.51 1z"/>
    </g>
  </symbol>
  <symbol id="signout" viewBox="0 0 24 24">
    <g fill="none" stroke="currentColor" stroke-width="1.6" stroke-linecap="round" stroke-linejoin="round">
      <path d="M9 21H5a2 2 0 01-2-2V5a2 2 0 012-2h4"/>
      <path d="M16 17l5-5-5-5"/><path d="M21 12H9"/>
    </g>
  </symbol>
  <symbol id="plus" viewBox="0 0 24 24">
    <g fill="none" stroke="currentColor" stroke-width="1.6" stroke-linecap="round" stroke-linejoin="round">
      <path d="M12 5v14"/><path d="M5 12h14"/>
    </g>
  </symbol>
  <symbol id="chev-l" viewBox="0 0 24 24">
    <g fill="none" stroke="currentColor" stroke-width="1.6" stroke-linecap="round" stroke-linejoin="round">
      <path d="M15 18l-6-6 6-6"/>
    </g>
  </symbol>
  <symbol id="chev-r" viewBox="0 0 24 24">
    <g fill="none" stroke="currentColor" stroke-width="1.6" stroke-linecap="round" stroke-linejoin="round">
      <path d="M9 6l6 6-6 6"/>
    </g>
  </symbol>
  <symbol id="check" viewBox="0 0 24 24">
    <g fill="none" stroke="currentColor" stroke-width="2.4" stroke-linecap="round" stroke-linejoin="round">
      <path d="M5 12l4 4 10-10"/>
    </g>
  </symbol>
  <symbol id="note" viewBox="0 0 24 24">
    <g fill="none" stroke="currentColor" stroke-width="1.6" stroke-linecap="round" stroke-linejoin="round">
      <path d="M14 3H6a2 2 0 00-2 2v14a2 2 0 002 2h12a2 2 0 002-2V9z"/>
      <path d="M14 3v6h6"/><path d="M9 13h6"/><path d="M9 17h4"/>
    </g>
  </symbol>
  <symbol id="palette" viewBox="0 0 24 24">
    <g fill="none" stroke="currentColor" stroke-width="1.6" stroke-linecap="round" stroke-linejoin="round">
      <circle cx="7.5" cy="10.5" r="1.5"/><circle cx="12" cy="7.5" r="1.5"/>
      <circle cx="16.5" cy="10.5" r="1.5"/><circle cx="14.5" cy="15.5" r="1.5"/>
      <path d="M12 3a9 9 0 100 18c1 0 1.5-.5 1.5-1.5 0-.6-.3-1-.6-1.5-.3-.4-.5-.8-.5-1.2 0-1 .8-1.8 1.8-1.8H16a5 5 0 005-5A8 8 0 0012 3z"/>
    </g>
  </symbol>
  <symbol id="edit" viewBox="0 0 24 24">
    <g fill="none" stroke="currentColor" stroke-width="1.6" stroke-linecap="round" stroke-linejoin="round">
      <path d="M12 20h9"/><path d="M16.5 3.5a2.1 2.1 0 013 3L7 19l-4 1 1-4z"/>
    </g>
  </symbol>
  <symbol id="trash" viewBox="0 0 24 24">
    <g fill="none" stroke="currentColor" stroke-width="1.6" stroke-linecap="round" stroke-linejoin="round">
      <path d="M3 6h18"/><path d="M8 6V4a2 2 0 012-2h4a2 2 0 012 2v2"/>
      <path d="M19 6l-1 14a2 2 0 01-2 2H8a2 2 0 01-2-2L5 6"/>
    </g>
  </symbol>
  <symbol id="close" viewBox="0 0 24 24">
    <g fill="none" stroke="currentColor" stroke-width="1.6" stroke-linecap="round" stroke-linejoin="round">
      <path d="M6 6l12 12M18 6L6 18"/>
    </g>
  </symbol>
  <symbol id="calendar" viewBox="0 0 24 24">
    <g fill="none" stroke="currentColor" stroke-width="1.6" stroke-linecap="round" stroke-linejoin="round">
      <rect x="3" y="4" width="18" height="17" rx="2"/>
      <path d="M3 10h18"/><path d="M8 2v4M16 2v4"/>
    </g>
  </symbol>
  <symbol id="copy" viewBox="0 0 24 24">
    <g fill="none" stroke="currentColor" stroke-width="1.6" stroke-linecap="round" stroke-linejoin="round">
      <rect x="9" y="9" width="13" height="13" rx="2"/>
      <path d="M5 15H4a2 2 0 01-2-2V4a2 2 0 012-2h9a2 2 0 012 2v1"/>
    </g>
  </symbol>
  <symbol id="repeat" viewBox="0 0 24 24">
    <g fill="none" stroke="currentColor" stroke-width="1.6" stroke-linecap="round" stroke-linejoin="round">
      <path d="M17 1l4 4-4 4"/><path d="M3 11v-1a4 4 0 014-4h14"/>
      <path d="M7 23l-4-4 4-4"/><path d="M21 13v1a4 4 0 01-4 4H3"/>
    </g>
  </symbol>
  <symbol id="bell" viewBox="0 0 24 24">
    <g fill="none" stroke="currentColor" stroke-width="1.6" stroke-linecap="round" stroke-linejoin="round">
      <path d="M18 8A6 6 0 006 8c0 7-3 9-3 9h18s-3-2-3-9"/>
      <path d="M13.73 21a2 2 0 01-3.46 0"/>
    </g>
  </symbol>
  <symbol id="keyboard" viewBox="0 0 24 24">
    <g fill="none" stroke="currentColor" stroke-width="1.6" stroke-linecap="round" stroke-linejoin="round">
      <rect x="2" y="6" width="20" height="13" rx="2"/>
      <path d="M6 10h.01M10 10h.01M14 10h.01M18 10h.01M8 14h8M6 14h.01M18 14h.01"/>
    </g>
  </symbol>
  <symbol id="skip" viewBox="0 0 24 24">
    <g fill="none" stroke="currentColor" stroke-width="1.6" stroke-linecap="round" stroke-linejoin="round">
      <path d="M5 4l10 8-10 8V4z"/><path d="M19 4v16"/>
    </g>
  </symbol>
  <symbol id="menu" viewBox="0 0 24 24">
    <g fill="none" stroke="currentColor" stroke-width="1.6" stroke-linecap="round" stroke-linejoin="round">
      <path d="M3 6h18"/><path d="M3 12h18"/><path d="M3 18h18"/>
    </g>
  </symbol>
  <symbol id="more" viewBox="0 0 24 24">
    <circle cx="5" cy="12" r="1.5" fill="currentColor"/>
    <circle cx="12" cy="12" r="1.5" fill="currentColor"/>
    <circle cx="19" cy="12" r="1.5" fill="currentColor"/>
  </symbol>
</svg>
